<?xml version="1.0" standalone="no"?><!DOCTYPE svg PUBLIC "-//W3C//DTD SVG 1.1//EN" "http://www.w3.org/Graphics/SVG/1.1/DTD/svg11.dtd"><svg t="1545019197674" class="icon" style="" viewBox="0 0 1024 1024" version="1.1" xmlns="http://www.w3.org/2000/svg" p-id="3641" xmlns:xlink="http://www.w3.org/1999/xlink" width="16" height="16"><defs><style type="text/css"></style></defs><path d="M947.2 243.2H76.8c-6.4 0-12.8-6.4-12.8-19.2s6.4-19.2 19.2-19.2h864c12.8 0 19.2 6.4 19.2 19.2s-12.8 19.2-19.2 19.2z" fill="" p-id="3642"></path><path d="M704 960H320c-83.2 0-147.2-64-147.2-147.2V224c0-12.8 6.4-19.2 19.2-19.2s19.2 6.4 19.2 19.2v588.8c0 57.6 51.2 108.8 108.8 108.8h384c57.6 0 108.8-51.2 108.8-108.8V224c0-12.8 6.4-19.2 19.2-19.2s19.2 6.4 19.2 19.2v588.8c0 83.2-64 147.2-147.2 147.2zM672 166.4c-12.8 0-19.2-6.4-19.2-19.2 0-25.6-19.2-44.8-44.8-44.8h-192c-25.6 0-44.8 19.2-44.8 44.8 0 12.8-6.4 19.2-19.2 19.2s-19.2-6.4-19.2-19.2c0-44.8 38.4-83.2 83.2-83.2h192c44.8 0 83.2 38.4 83.2 83.2 0 12.8-6.4 19.2-19.2 19.2z" fill="" p-id="3643"></path><path d="M352 691.2c-12.8 0-19.2-6.4-19.2-19.2v-192c0-12.8 6.4-19.2 19.2-19.2s19.2 6.4 19.2 19.2v192c0 12.8-6.4 19.2-19.2 19.2zM672 691.2c-12.8 0-19.2-6.4-19.2-19.2v-192c0-12.8 6.4-19.2 19.2-19.2s19.2 6.4 19.2 19.2v192c0 12.8-6.4 19.2-19.2 19.2zM512 755.2c-12.8 0-19.2-6.4-19.2-19.2v-320c0-12.8 6.4-19.2 19.2-19.2s19.2 6.4 19.2 19.2v320c0 12.8-6.4 19.2-19.2 19.2z" fill="" p-id="3644"></path></svg>