<?xml version="1.0" standalone="no"?><!DOCTYPE svg PUBLIC "-//W3C//DTD SVG 1.1//EN" "http://www.w3.org/Graphics/SVG/1.1/DTD/svg11.dtd"><svg t="1548313513053" class="icon" style="" viewBox="0 0 1024 1024" version="1.1" xmlns="http://www.w3.org/2000/svg" p-id="1373" xmlns:xlink="http://www.w3.org/1999/xlink" width="200" height="200"><defs><style type="text/css"></style></defs><path d="M277.9 742s167.9-294.1 465.3-465.3C575.7 577.8 277.9 742 277.9 742z" fill="#FFFFFF" p-id="1374"></path><path d="M743.1 742S575.2 447.9 277.8 276.7C445.3 577.8 743.1 742 743.1 742z" fill="#FFFFFF" p-id="1375"></path><path d="M284.1 343m-49 0a49 49 0 1 0 98 0 49 49 0 1 0-98 0Z" fill="#FFFFFF" p-id="1376"></path><path d="M284.1 515.5m-49 0a49 49 0 1 0 98 0 49 49 0 1 0-98 0Z" fill="#FFFFFF" p-id="1377"></path><path d="M284.1 683.5m-49 0a49 49 0 1 0 98 0 49 49 0 1 0-98 0Z" fill="#FFFFFF" p-id="1378"></path><path d="M808.4 341.6s-208.5-61.2-420 0c211.5 64.8 420 0 420 0zM808.4 516.6s-208.5-61.2-420 0c211.5 64.8 420 0 420 0zM808.4 684.6s-208.5-61.2-420 0c211.5 64.8 420 0 420 0z" fill="#FFFFFF" p-id="1379"></path><path d="M620.9 624s122.7 220.8 189.5 287.6 98.9 59.2 128.1 30c29.2-29.2 36.8-61.3-30-128.1S620.9 624 620.9 624zM364.7 662.3C198.9 662.3 64 527.5 64 361.6S198.9 60.9 364.7 60.9s300.7 134.9 300.7 300.7-134.9 300.7-300.7 300.7z m0-539.7c-131.8 0-239 107.2-239 239s107.2 239 239 239 239-107.2 239-239-107.2-239-239-239z" fill="" p-id="1380"></path></svg>