<?xml version="1.0" standalone="no"?><!DOCTYPE svg PUBLIC "-//W3C//DTD SVG 1.1//EN" "http://www.w3.org/Graphics/SVG/1.1/DTD/svg11.dtd"><svg t="1546829143487" class="icon" style="" viewBox="0 0 1024 1024" version="1.1" xmlns="http://www.w3.org/2000/svg" p-id="1100" xmlns:xlink="http://www.w3.org/1999/xlink" width="16" height="16"><defs><style type="text/css"></style></defs><path d="M512 62.389956c-248.312412 0-449.610044 201.297632-449.610044 449.610044s201.297632 449.610044 449.610044 449.610044 449.610044-201.297632 449.610044-449.610044S760.312412 62.389956 512 62.389956zM669.206438 705.002712c-7.993045 7.993045-18.467607 11.989055-28.943193 11.989055s-20.951171-3.996011-28.943193-11.989055L469.421252 563.103912c-0.480954-0.480954-0.948605-0.974188-1.404999-1.477654-0.202615-0.223081-0.39295-0.454348-0.589424-0.680499-0.239454-0.276293-0.483001-0.549515-0.715291-0.832971-0.248663-0.302899-0.485047-0.61296-0.723477-0.920976-0.166799-0.214894-0.336668-0.426719-0.499373-0.644683-0.255827-0.344854-0.499373-0.694825-0.743944-1.045819-0.134053-0.193405-0.272199-0.382717-0.403183-0.578168-0.243547-0.363274-0.474814-0.731664-0.706081-1.101077-0.121773-0.195451-0.246617-0.387833-0.36532-0.585331-0.218988-0.364297-0.427742-0.733711-0.63445-1.104147-0.12075-0.214894-0.243547-0.428765-0.360204-0.645706-0.187265-0.349971-0.364297-0.703011-0.541329-1.056052-0.124843-0.25071-0.252757-0.500397-0.372483-0.754177-0.153496-0.323365-0.296759-0.648776-0.441045-0.975211-0.12996-0.293689-0.260943-0.586354-0.38374-0.884137-0.119727-0.289596-0.232291-0.582261-0.344854-0.873903-0.132006-0.340761-0.264013-0.681522-0.38681-1.026376-0.091074-0.255827-0.174985-0.5137-0.260943-0.77055-0.127913-0.382717-0.254803-0.765433-0.372483-1.153266-0.069585-0.229221-0.130983-0.460488-0.196475-0.691755-0.116657-0.414439-0.232291-0.828878-0.336668-1.248434-0.053212-0.215918-0.100284-0.432859-0.149403-0.648776-0.100284-0.431835-0.198521-0.864694-0.284479-1.301645-0.042979-0.221034-0.078795-0.442068-0.118704-0.663102-0.077771-0.430812-0.154519-0.860601-0.218988-1.295506-0.037862-0.25685-0.065492-0.514723-0.098237-0.771573-0.051165-0.399089-0.104377-0.797156-0.144286-1.199315-0.033769-0.345877-0.054235-0.691755-0.078795-1.038656-0.022513-0.318248-0.053212-0.63445-0.068562-0.954745-0.032746-0.673335-0.051165-1.346671-0.051165-2.02103 0-0.001023 0-0.002047 0-0.00307L457.426057 214.047004c0-22.605857 18.326391-40.932248 40.932248-40.932248 22.606881 0 40.932248 18.326391 40.932248 40.932248l0 303.152415 129.915885 129.915885C685.191504 663.10037 685.191504 689.016623 669.206438 705.002712z" p-id="1101"></path></svg>