<?xml version="1.0" standalone="no"?><!DOCTYPE svg PUBLIC "-//W3C//DTD SVG 1.1//EN" "http://www.w3.org/Graphics/SVG/1.1/DTD/svg11.dtd"><svg t="1545027054519" class="icon" style="" viewBox="0 0 1024 1024" version="1.1" xmlns="http://www.w3.org/2000/svg" p-id="2248" xmlns:xlink="http://www.w3.org/1999/xlink" width="128" height="128"><defs><style type="text/css"></style></defs><path d="M0 512c0 14.08 11.52 25.6 25.6 25.6l603.8528 0L437.824 729.2288c-9.9584 9.9584-9.9584 26.2528 0 36.1984l0 0c9.9584 9.9584 26.2528 9.9584 36.1984 0l235.328-235.328c2.3808-2.3808 4.16-5.1456 5.4016-8.0768 0.0128-0.0384 0.0384-0.064 0.0512-0.0896 0.5248-1.2416 0.8704-2.5216 1.1904-3.8144 0.0896-0.3584 0.2432-0.6912 0.3072-1.0624 0.32-1.6256 0.4992-3.2768 0.4992-4.928 0-0.0384 0.0128-0.0768 0.0128-0.128s-0.0128-0.0768-0.0128-0.128c-0.0128-1.6512-0.1792-3.3024-0.4992-4.928-0.0768-0.3712-0.2176-0.704-0.3072-1.0624-0.32-1.2928-0.6656-2.5728-1.1904-3.8144-0.0128-0.0384-0.0384-0.064-0.0512-0.0896-1.2416-2.9312-3.0208-5.696-5.4016-8.0768l0 0L474.0224 258.5728c-9.9584-9.9584-26.2528-9.9584-36.1984 0-9.9584 9.9584-9.9584 26.2528 0 36.1984L629.4528 486.4 25.6 486.4C11.52 486.4 0 497.92 0 512z" p-id="2249"></path><path d="M921.6 0 102.4 0C46.08 0 0 46.08 0 102.4l0 256c0 14.144 11.456 25.6 25.6 25.6s25.6-11.456 25.6-25.6L51.2 102.4c0-28.2752 22.9248-51.2 51.2-51.2l819.2 0c28.2752 0 51.2 22.9248 51.2 51.2l0 819.2c0 28.2752-22.9248 51.2-51.2 51.2L102.4 972.8c-28.2752 0-51.2-22.9248-51.2-51.2L51.2 665.6c0-14.144-11.456-25.6-25.6-25.6s-25.6 11.456-25.6 25.6l0 256c0 56.32 46.08 102.4 102.4 102.4l819.2 0c56.32 0 102.4-46.08 102.4-102.4L1024 102.4C1024 46.08 977.92 0 921.6 0z" p-id="2250"></path></svg>