<?xml version="1.0" standalone="no"?><!DOCTYPE svg PUBLIC "-//W3C//DTD SVG 1.1//EN" "http://www.w3.org/Graphics/SVG/1.1/DTD/svg11.dtd"><svg t="1543806490511" class="icon" style="" viewBox="0 0 1024 1024" version="1.1" xmlns="http://www.w3.org/2000/svg" p-id="5325" xmlns:xlink="http://www.w3.org/1999/xlink" width="200" height="200"><defs><style type="text/css"></style></defs><path d="M224 756.928h224a32 32 0 0 1 31.52 26.432c3.168 18.304 18.272 26.944 32.992 26.304 14.144 0.64 28.672-7.392 32.672-24.512 3.968-16.992 16.928-28.224 30.816-28.224h224a96 96 0 0 0 96-96V224a96 96 0 0 0-96-96h-224c-24.448 0-46.24 9.952-63.008 25.728A95.36 95.36 0 0 0 448 128H224a96 96 0 0 0-96 96v436.928a96 96 0 0 0 96 96zM576 192h224a32 32 0 0 1 32 32v436.928a32 32 0 0 1-32 32h-224c-11.2 0-21.984 2.048-32 5.824V230.624C544 208.64 559.072 192 576 192zM192 224a32 32 0 0 1 32-32h224a32 32 0 0 1 32 32v474.432a95.872 95.872 0 0 0-32-5.472H224a32 32 0 0 1-32-32V224z" p-id="5326" fill="#ffffff"></path><path d="M957.984 288a32 32 0 0 0-32 32v448a32 32 0 0 1-32 32h-224a96.096 96.096 0 0 0-83.168 48h-151.648A96.096 96.096 0 0 0 352 800H128a32 32 0 0 1-32-32V320a32 32 0 0 0-64 0v448a96 96 0 0 0 96 96h224c14.688 0 27.392 9.984 31.008 23.968a32 32 0 0 0 31.008 24.032H608c14.592 0 27.36-9.888 31.008-24.032a32 32 0 0 1 30.976-23.968h224a96 96 0 0 0 96-96V320a32 32 0 0 0-32-32z" p-id="5327" fill="#ffffff"></path><path d="M272 336h113.152a32 32 0 0 0 0-64H272a32 32 0 0 0 0 64zM272 464h113.152a32 32 0 0 0 0-64H272a32 32 0 0 0 0 64z" p-id="5328" fill="#ffffff"></path></svg>