<?xml version="1.0" standalone="no"?><!DOCTYPE svg PUBLIC "-//W3C//DTD SVG 1.1//EN" "http://www.w3.org/Graphics/SVG/1.1/DTD/svg11.dtd"><svg t="1544079333680" class="icon" style="" viewBox="0 0 1024 1024" version="1.1" xmlns="http://www.w3.org/2000/svg" p-id="4716" xmlns:xlink="http://www.w3.org/1999/xlink" width="200" height="200"><defs><style type="text/css"></style></defs><path d="M887.2 136.1c-7-6.8-16.5-9.5-25.5-8.1H610c-16.6 0-30 13.4-30 30s13.4 30 30 30h183.6L554.8 426.8c-5.6 5.6-8.8 13.3-8.8 21.2 0 16.6 13.4 30 30 30 8 0 15.6-3.2 21.2-8.8L836 230.4V414c0 16.6 13.4 30 30 30s30-13.4 30-30V162.3c1.5-9.3-1.5-19.2-8.8-26.2zM426.8 554.8L188 794.4V611c0-16.6-13.4-30-30-30s-30 13.4-30 30v256c0 16.6 13.4 30 30 30h256c16.6 0 30-13.4 30-30s-13.4-30-30-30H230.3l239-239.8c11.7-11.7 11.7-30.7-0.1-42.4-11.8-11.7-30.8-11.7-42.4 0z" p-id="4717" fill="#515151"></path></svg>