<?xml version="1.0" standalone="no"?><!DOCTYPE svg PUBLIC "-//W3C//DTD SVG 1.1//EN" "http://www.w3.org/Graphics/SVG/1.1/DTD/svg11.dtd"><svg t="1543837429032" class="icon" style="" viewBox="0 0 1024 1024" version="1.1" xmlns="http://www.w3.org/2000/svg" p-id="1878" xmlns:xlink="http://www.w3.org/1999/xlink" width="200" height="200"><defs><style type="text/css"></style></defs><path d="M209.94821167 141.21142578C222.78491211 141.21142578 233.66384888 145.69055176 242.65176391 154.50048828l325.24832154 324.51416016C577.13272094 488.12121582 581.70825195 499.24487305 581.70825195 511.92584229c0 12.82928467-4.58294677 23.9529419-13.81558227 33.06692505l-325.25573731 324.35101318C233.67126465 878.30944824 222.79974365 882.78857422 209.94821167 882.78857422c-12.8218689 0-23.77496338-4.47912598-32.83703613-13.6005249C168.02685547 860.22979737 163.48840333 849.25445557 163.45874023 836.44000244c0-13.14074708 4.46429443-24.1086731 13.40029907-32.91860962l292.27038575-291.58813477-292.27038575-291.43981933C167.92303467 211.51293945 163.45874023 200.5524292 163.45874023 187.41168213 163.45874023 174.12261963 167.84146118 163.16210937 176.7033081 154.34475708 185.55032349 145.53482055 196.60723877 141.21142578 209.91854859 141.21142578h0.02966308z m278.82559204 0c12.82928467 0 23.71563721 4.47912598 32.70355225 13.2890625l325.24832153 324.51416016C855.94348145 488.12121582 860.54125977 499.24487305 860.54125977 511.92584229c0 12.82928467-4.59777833 23.9529419-13.81558228 33.06692505l-325.25573731 324.35101318c-8.98049927 8.96566773-19.87426758 13.4447937-32.70355224 13.4447937-12.8218689 0-23.78979492-4.47912598-32.83703614-13.6005249-9.09173584-8.95825195-13.61535645-19.93359375-13.64501953-32.75546265 0-13.14074708 4.45687867-24.1086731 13.40029908-32.91860962l292.27038574-291.58813476-292.27038574-291.43981934C446.74121094 211.51293945 442.28433227 200.5524292 442.28433227 187.41168213c0-13.2890625 4.37530518-24.25698852 13.24456788-33.06692505C464.37591553 145.53482055 475.43283081 141.21142578 488.73672485 141.21142578h0.03707886z" p-id="1879" fill="#8a8a8a"></path></svg>