<?xml version="1.0" standalone="no"?><!DOCTYPE svg PUBLIC "-//W3C//DTD SVG 1.1//EN" "http://www.w3.org/Graphics/SVG/1.1/DTD/svg11.dtd"><svg t="1543837502421" class="icon" style="" viewBox="0 0 1024 1024" version="1.1" xmlns="http://www.w3.org/2000/svg" p-id="3663" xmlns:xlink="http://www.w3.org/1999/xlink" width="200" height="200"><defs><style type="text/css"></style></defs><path d="M535.21136474 141.21142578c12.82928467 0 23.75271607 4.47912598 32.874115 13.59310914 9.04724122 9.12139893 13.62277222 19.93359375 13.62277221 32.75546264 0 12.82928467-4.59777833 23.78979492-13.83782958 33.05950927L275.63711548 512l292.23330689 291.53622437C577.11047364 812.64279175 581.70825195 823.61071778 581.70825195 836.44000244c0 12.82928467-4.57553101 23.78979492-13.62277221 32.75546264C558.96408081 878.30944823 548.04064942 882.78857422 535.21136474 882.78857422c-13.07400513 0-24.10125732-4.47912598-33.05950927-13.4447937L176.8590393 545.06692505C167.95269776 536.10125732 163.45874023 525.1333313 163.45874023 512c0-12.9776001 4.49395753-23.9529419 13.40029907-32.91119385l325.29281617-324.44000244C511.11010742 145.69796753 522.13735962 141.37457276 535.21136474 141.37457276V141.21142578zM814.04437257 141.21142578c12.82928467 0 23.76013184 4.47912598 32.88894652 13.59310914C855.97314453 163.92593383 860.54125977 174.73812867 860.54125977 187.55999756c0 12.82928467-4.59777833 23.78979492-13.83782959 33.05950927L554.47012329 512l292.23330689 291.53622437C855.94348145 812.64279175 860.54125977 823.61071778 860.54125977 836.44000244c0 12.82928467-4.56811523 23.78979492-13.61535645 32.75546264-9.12139893 9.11398315-20.06707763 13.59310913-32.88894653 13.59310914-13.07400513 0-24.10125732-4.47912598-33.04467773-13.4447937L455.69204711 545.06692505c-8.9211731-8.95825195-13.41513062-19.92617798-13.4151306-33.05950928 0-12.9776001 4.49395753-23.9529419 13.42254638-32.91119384l325.29281617-324.44000245C789.92828369 145.69796753 800.96295166 141.37457276 814.03695679 141.37457276V141.21142578z" p-id="3664" fill="#8a8a8a"></path></svg>