<?xml version="1.0" standalone="no"?><!DOCTYPE svg PUBLIC "-//W3C//DTD SVG 1.1//EN" "http://www.w3.org/Graphics/SVG/1.1/DTD/svg11.dtd"><svg t="1544084113387" class="icon" style="" viewBox="0 0 1024 1024" version="1.1" xmlns="http://www.w3.org/2000/svg" p-id="8467" xmlns:xlink="http://www.w3.org/1999/xlink" width="200" height="200"><defs><style type="text/css"></style></defs><path d="M739.4 54H284.6c-30.8 0-55.8 25-55.8 55.8v804.4c0 30.8 25 55.8 55.8 55.8h454.9c30.8 0 55.8-25 55.8-55.8V109.8c0-30.8-25.1-55.8-55.9-55.8z m35.9 860.2c0 19.8-16.1 35.8-35.8 35.8H284.6c-19.8 0-35.8-16.1-35.8-35.8V109.8c0-19.8 16.1-35.8 35.8-35.8h454.9c19.8 0 35.8 16.1 35.8 35.8v804.4z" fill="#2c2c2c" p-id="8468"></path><path d="M688.9 126.6H335.1c-20 0-36.4 16.3-36.4 36.4v590.6c0 20 16.3 36.4 36.4 36.4h353.8c20 0 36.4-16.3 36.4-36.4V162.9c0-20-16.3-36.3-36.4-36.3z m16.4 626.9c0 9-7.3 16.4-16.4 16.4H335.1c-9 0-16.4-7.3-16.4-16.4V162.9c0-9 7.3-16.4 16.4-16.4h353.8c9 0 16.4 7.3 16.4 16.4v590.6zM512 810.6c-32.5 0-59 26.5-59 59s26.5 59 59 59 59-26.5 59-59-26.5-59-59-59z m0 98c-21.5 0-39-17.5-39-39s17.5-39 39-39 39 17.5 39 39-17.5 39-39 39z" fill="#2c2c2c" p-id="8469"></path></svg>