<?xml version="1.0" standalone="no"?><!DOCTYPE svg PUBLIC "-//W3C//DTD SVG 1.1//EN" "http://www.w3.org/Graphics/SVG/1.1/DTD/svg11.dtd"><svg t="1546852700596" class="icon" style="" viewBox="0 0 1024 1024" version="1.1" xmlns="http://www.w3.org/2000/svg" p-id="2232" xmlns:xlink="http://www.w3.org/1999/xlink" width="200" height="200"><defs><style type="text/css"></style></defs><path d="M447.999627 895.999253A447.999627 447.999627 0 1 1 895.999253 447.999627 448.426293 448.426293 0 0 1 447.999627 895.999253z m0-810.665991a362.666364 362.666364 0 1 0 362.666364 362.666365A363.093031 363.093031 0 0 0 447.999627 85.333262z" p-id="2233" fill="#f4ea2a"></path><path d="M981.332516 1023.999147a42.666631 42.666631 0 0 1-30.293309-12.373323l-213.333155-213.333156a42.666631 42.666631 0 0 1 60.586616-60.586616l213.333156 213.333155a42.666631 42.666631 0 0 1 0 60.586617A42.666631 42.666631 0 0 1 981.332516 1023.999147zM298.666418 618.666151a21.333316 21.333316 0 0 1-21.333316-21.333315v-170.666525a21.333316 21.333316 0 0 1 42.666631 0v170.666525a21.333316 21.333316 0 0 1-21.333315 21.333315zM447.999627 618.666151a21.333316 21.333316 0 0 1-21.333316-21.333315V255.999787a21.333316 21.333316 0 0 1 42.666631 0v341.333049a21.333316 21.333316 0 0 1-21.333315 21.333315zM597.332836 618.666151a21.333316 21.333316 0 0 1-21.333316-21.333315V341.333049a21.333316 21.333316 0 0 1 42.666631 0v255.999787a21.333316 21.333316 0 0 1-21.333315 21.333315z" p-id="2234" fill="#f4ea2a"></path></svg>