<?xml version="1.0" standalone="no"?><!DOCTYPE svg PUBLIC "-//W3C//DTD SVG 1.1//EN" "http://www.w3.org/Graphics/SVG/1.1/DTD/svg11.dtd"><svg t="1542095895688" class="icon" style="" viewBox="0 0 1024 1024" version="1.1" xmlns="http://www.w3.org/2000/svg" p-id="507" xmlns:xlink="http://www.w3.org/1999/xlink" width="200" height="200"><defs><style type="text/css"></style></defs><path d="M938.4689664 270.87121067l-74.46309547-74.42705067c-9.16411733-9.15428693-20.25280853-13.7035776-33.32396373-13.7035776-13.0187264 0-24.16093867 4.54929067-33.26716587 13.7035776l-45.05381546 45.03415467 141.05422506 140.97995093 45.05381547-45.0297856c9.10731947-9.10185813 13.71450027-20.24297813 13.71450027-33.30757973 0-13.00998827-4.60827307-24.1467392-13.71450027-33.2496896zM391.82117547 601.77667413v140.97995094H532.92782933l329.1480064-328.97652054-141.11102293-140.97995093-329.14363733 328.97652053z m121.49828266 94.0212224h-27.426816v-47.01006506h-47.03627946v-27.41807787l56.84046506-56.8098816 74.4095744 74.42814293-56.786944 56.8098816z m215.03781547-336.31218346L556.9314816 530.82740053c-5.5738368 5.51376213-10.98492587 5.6754176-16.1808384 0.48278187-5.24834133-5.2461568-5.09105493-10.60154027 0.48278187-16.171008l171.43125333-171.33841067c5.56837547-5.57056 10.92703573-5.73330773 16.17537707-0.48278186 5.19591253 5.193728 5.03862613 10.60263253-0.48278187 16.1677312z m-36.11579733 411.0548992c-2.85190827 4.15389013-6.1669376 8.11881813-9.9549184 11.8915072-15.32122453 15.36928427-33.8034688 23.02498133-55.34078294 23.02498133H219.4243584c-21.53294507 0-40.01518933-7.65569707-55.34078293-23.02498133-15.37256107-15.31357867-23.03153493-33.78490027-23.03153494-55.312384V319.81131093c0-21.5220224 7.65897387-39.99552853 23.03153494-55.312384 15.3255936-15.3649152 33.80783787-23.02170453 55.34078293-23.02170453h407.5225088c7.17728427 0 14.51840853 0.96556373 22.02118827 2.9458432 5.89277867 1.98027947 11.14112 0.638976 15.6925952-3.91031467l24.00256-23.9894528c3.91140693-3.91031467 5.4099968-8.6736896 4.39309653-14.18635946-0.96447147-5.25052587-3.91140693-8.99700053-8.78619307-11.2984064-17.6226304-8.13847893-36.749312-12.2093568-57.32215466-12.2093568H219.4243584c-38.84100267 0-72.05464747 13.76146773-99.6442112 41.33573973C92.13924693 247.79270827 78.37013333 280.98996907 78.37013333 319.81131093v407.30842454c0 38.82134187 13.7691136 72.0175104 41.41001387 99.59287466 27.58956373 27.63106987 60.80320853 41.3925376 99.6442112 41.3925376h407.5225088c38.84100267 0 72.05573973-13.76146773 99.70210133-41.3925376a153.87962027 153.87962027 0 0 0 13.53427627-15.4238976c-19.5035136-8.92381867-36.0906752-23.1112704-47.94176853-40.74810026z" fill="#e27466" p-id="508"></path><path d="M892.98152107 601.75373653v-0.3080192c-47.53762987-47.42403413-124.54024533-47.3530368-171.9926784 0.15510187-47.448064 47.5103232-47.38143573 124.46706347 0.15619413 171.89218987 47.9199232 44.50440533 122.48787627 43.1423488 168.74755413-3.0900224 46.25749333-46.2323712 47.62282667-120.75226453 3.08893014-168.64925014z m-166.02781014 43.8272c15.56370773-29.9401216 46.497792-48.73693867 80.248832-48.78390613-0.0458752 0-0.09065813-0.0032768-0.13653333-0.0032768h0.30911147c-0.05789013 0-0.114688 0.00218453-0.17257814 0.0032768a89.99185067 89.99185067 0 0 1 51.9733248 16.73898667L733.2429824 739.393536c-19.45545387-27.6463616-21.88356267-63.82114133-6.28927147-93.81259947z m160.5500928 85.18478507c-15.6401664 30.08320853-46.83093333 48.86145707-80.75127466 48.61569707l0.31238826-1.2419072a89.97874347 89.97874347 0 0 1-52.10985813-15.499264l125.927424-125.85751894c19.70230613 27.5972096 22.25821013 63.90306133 6.62132053 93.98299307z" fill="#e27466" p-id="509"></path></svg>