<?xml version="1.0" standalone="no"?><!DOCTYPE svg PUBLIC "-//W3C//DTD SVG 1.1//EN" "http://www.w3.org/Graphics/SVG/1.1/DTD/svg11.dtd"><svg t="1545032171132" class="icon" style="" viewBox="0 0 1024 1024" version="1.1" xmlns="http://www.w3.org/2000/svg" p-id="5494" xmlns:xlink="http://www.w3.org/1999/xlink" width="200" height="200"><defs><style type="text/css"></style></defs><path d="M864 160h-164.512A127.712 127.712 0 0 0 576 64a128 128 0 0 0 0 256 127.712 127.712 0 0 0 123.488-96H864a32 32 0 0 1 32 32v288a32 32 0 0 1-32 32h-304a32 32 0 0 0 0 64H864a96 96 0 0 0 96-96V256a96 96 0 0 0-96-96z m-288 96a64 64 0 1 1 0.032-128.032A64 64 0 0 1 576 256z" p-id="5495" fill="#dbdbdb"></path><path d="M832 704c-57.376 0-105.376 38.016-121.632 90.048H384a31.872 31.872 0 0 1-31.744-30.656A127.68 127.68 0 0 0 320 512c-47.264 0-88.064 25.888-110.24 64H160a32 32 0 0 1-32-32V256a32 32 0 0 1 32-32h208a32 32 0 0 0 0-64H160a96 96 0 0 0-96 96v288a96 96 0 0 0 96 96h32a127.68 127.68 0 0 0 96.16 123.52A95.936 95.936 0 0 0 384 858.08h322.688A128 128 0 1 0 832 704zM256 640a64 64 0 1 1 128.032 0.032A64 64 0 0 1 256 640z m576 256a64 64 0 1 1 0.032-128.032A64 64 0 0 1 832 896z" p-id="5496" fill="#dbdbdb"></path></svg>