<?xml version="1.0" standalone="no"?><!DOCTYPE svg PUBLIC "-//W3C//DTD SVG 1.1//EN" "http://www.w3.org/Graphics/SVG/1.1/DTD/svg11.dtd"><svg t="1544085455225" class="icon" style="" viewBox="0 0 1024 1024" version="1.1" xmlns="http://www.w3.org/2000/svg" p-id="11216" xmlns:xlink="http://www.w3.org/1999/xlink" width="200" height="200"><defs><style type="text/css"></style></defs><path d="M870.4 153.6H736v-56C736 79 721 64 702.4 64s-33.6 15-33.6 33.6v56H355.2v-56c0-18.6-15-33.6-33.6-33.6S288 79 288 97.6v56H153.6c-49.5 0-89.6 40.1-89.6 89.6v627.2c0 49.5 40.1 89.6 89.6 89.6h716.8c49.5 0 89.6-40.1 89.6-89.6V243.2c0-49.5-40.1-89.6-89.6-89.6zM892.8 848c0 24.7-20.1 44.8-44.8 44.8H176c-24.7 0-44.8-20.1-44.8-44.8V265.6c0-24.7 20.1-44.8 44.8-44.8h112v56c0 18.6 15 33.6 33.6 33.6s33.6-15 33.6-33.6v-56h313.6v56c0 18.6 15 33.6 33.6 33.6s33.6-15 33.6-33.6v-56h112c24.7 0 44.8 20.1 44.8 44.8V848zM456.9 642.7c33.3-24.5 55.1-63.8 55.1-108.3 0-74.2-60.2-134.4-134.4-134.4s-134.4 60.2-134.4 134.4c0 44.5 21.7 83.8 55.1 108.3-52.7 26.1-90.6 77.4-98.2 138.1h67.8c10.4-51.1 55.6-89.6 109.7-89.6s99.4 38.5 109.7 89.6h67.8c-7.5-60.7-45.4-112-98.2-138.1z m-79.3-41.1c-37.1 0-67.2-30.1-67.2-67.2s30.1-67.2 67.2-67.2 67.2 30.1 67.2 67.2-30.1 67.2-67.2 67.2z m369.6 44.8H680c-18.6 0-33.6 15-33.6 33.6s15 33.6 33.6 33.6h67.2c18.6 0 33.6-15 33.6-33.6s-15-33.6-33.6-33.6zM792 467.2H635.2c-18.6 0-33.6 15-33.6 33.6s15 33.6 33.6 33.6H792c18.6 0 33.6-15 33.6-33.6s-15-33.6-33.6-33.6z" fill="#2c2c2c" p-id="11217"></path></svg>