<?xml version="1.0" standalone="no"?><!DOCTYPE svg PUBLIC "-//W3C//DTD SVG 1.1//EN" "http://www.w3.org/Graphics/SVG/1.1/DTD/svg11.dtd"><svg t="1544084246828" class="icon" style="" viewBox="0 0 1024 1024" version="1.1" xmlns="http://www.w3.org/2000/svg" p-id="10026" xmlns:xlink="http://www.w3.org/1999/xlink" width="200" height="200"><defs><style type="text/css"></style></defs><path d="M896 864H128a96.109 96.109 0 0 1-96-96V256a96.109 96.109 0 0 1 96-96h768a96.109 96.109 0 0 1 96 96v512a96.109 96.109 0 0 1-96 96zM128 224a32.036 32.036 0 0 0-32 32v512a32.036 32.036 0 0 0 32 32h768a32.036 32.036 0 0 0 32-32V256a32.036 32.036 0 0 0-32-32z" p-id="10027" fill="#2c2c2c"></path><path d="M512 544a31.993 31.993 0 0 1-12.605-2.587l-448-192a32 32 0 0 1 25.21-58.826L512 477.185l435.395-186.598a32 32 0 0 1 25.21 58.826l-448 192A31.993 31.993 0 0 1 512 544z" p-id="10028" fill="#2c2c2c"></path></svg>